<svg xmlns="http://www.w3.org/2000/svg" xmlns:xlink="http://www.w3.org/1999/xlink" width="303.047" height="320.411" viewBox="0 0 303.047 320.411"><defs><style>.a{opacity:0.07;}.b{fill:#1d1d1b;}.c{fill:url(#a);}.d{fill:url(#b);}</style><linearGradient id="a" x1="0.853" y1="0.147" x2="0.147" y2="0.853" gradientUnits="objectBoundingBox"><stop offset="0" stop-color="#51546c"/><stop offset="1" stop-color="#51546c"/></linearGradient><linearGradient id="b" x1="-0.082" y1="0.93" x2="0.987" y2="0.02" gradientUnits="objectBoundingBox"><stop offset="0"/><stop offset="0" stop-color="#070709"/><stop offset="0" stop-color="#1a1b22"/><stop offset="0" stop-color="#383a4b"/><stop offset="0" stop-color="#51546c"/><stop offset="0" stop-color="#59516c"/><stop offset="0" stop-color="#80446e"/><stop offset="0" stop-color="#9d3b70"/><stop offset="0" stop-color="#ae3571"/><stop offset="0" stop-color="#b43371"/><stop offset="0.28" stop-color="#b53674"/><stop offset="0.531" stop-color="#ba3f7d"/><stop offset="0.724" stop-color="#c24f8d"/><stop offset="0.857" stop-color="#ce65a3"/><stop offset="0.938" stop-color="#dd81bf"/><stop offset="1" stop-color="#e48fcd"/></linearGradient></defs><g class="a"><g transform="translate(0)"><path class="b" d="M309.606,643.693a95.067,95.067,0,0,1-13.666-189.149l2.217-.323,2.444-8.2.049-.013a94.946,94.946,0,0,1,24.955-3.42c1.841,0,3.7.042,5.533.142h.115L327.641,455.2l3.6.841a95.074,95.074,0,0,1-21.292,187.654Zm-8.861-197.521-2.447,8.213-2.333.339a94.894,94.894,0,0,0,13.642,188.79h.34A94.891,94.891,0,0,0,331.2,456.219l-3.785-.884,3.6-12.429c-1.794-.095-3.609-.14-5.407-.134A94.842,94.842,0,0,0,300.746,446.171Z" transform="translate(-175.6 -362.248)"/><path class="c" d="M140.68,564.108c-72.95.254-132.515-58.888-132.764-131.84S66.8,299.762,139.755,299.506,272.27,358.393,272.519,431.343,213.633,563.853,140.68,564.108ZM130.152,338.4l-3.124.454a93.623,93.623,0,1,0,34.768,1.477l-5.083-1.185,3.523-12.162c-1.253-.046-2.507-.067-3.754-.062a93.54,93.54,0,0,0-23.855,3.169Z" transform="translate(-6.478 -245.137)"/><path d="M133.685,294.788A130.956,130.956,0,0,1,134.6,556.7C62.4,556.953,3.443,498.41,3.19,426.2S61.477,295.041,133.685,294.788m1.067,225.639a94.981,94.981,0,0,0,21.271-187.471l-3.692-.862,3.607-12.445c-1.844-.1-3.692-.147-5.529-.142a94.8,94.8,0,0,0-24.931,3.415l-2.445,8.205-2.275.33a94.978,94.978,0,0,0,13.987,188.968M133.676,292.1C59.983,292.355.239,352.527.5,426.211S60.918,559.65,134.613,559.391,268.05,498.969,267.8,425.274,207.371,291.839,133.676,292.1Zm-6.049,33.038A92.3,92.3,0,0,1,150.42,322.2q.984,0,1.971.014l-2.645,9.133-.79,2.723,2.763.647,3.692.862a92.462,92.462,0,1,1-34.272-1.452l2.275-.33,1.7-.247.49-1.648,2.015-6.764Z" transform="translate(-0.405 -239.072)"/><path class="b" d="M133.728,559.075C60.2,559.075.254,499.391,0,425.805A133.74,133.74,0,0,1,133.267,291.6h.476c73.519,0,133.474,59.684,133.731,133.27.258,73.744-59.527,133.947-133.27,134.207Zm-.461-267.39v.091A133.708,133.708,0,0,0,.178,425.805c.258,73.48,60.127,133.076,133.55,133.089h.476c73.642-.258,133.347-60.382,133.089-134.023-.258-73.482-60.127-133.091-133.55-133.091h-.476Zm.456,264.693a131.045,131.045,0,0,1-.448-262.09h.467c72.048,0,130.785,58.483,131.038,130.585A131.048,131.048,0,0,1,134.192,556.38Zm-.445-262v.091a130.865,130.865,0,0,0,.445,261.728h.468A131.012,131.012,0,0,0,264.6,424.879c-.25-72-58.913-130.405-130.856-130.405h-.465ZM134,520.111a95.066,95.066,0,0,1-13.665-189.148l2.216-.323,2.442-8.2.049-.013A94.912,94.912,0,0,1,150,319.009c1.841,0,3.7.042,5.533.142h.114l-3.611,12.465,3.6.84a95.074,95.074,0,0,1-21.291,187.654H134ZM125.141,322.59l-2.447,8.212-2.333.339A94.894,94.894,0,0,0,134,519.933h.339a94.892,94.892,0,0,0,21.255-187.3l-3.785-.884,3.6-12.429c-1.794-.1-3.612-.142-5.408-.135a94.835,94.835,0,0,0-24.864,3.4ZM134,517.419a92.373,92.373,0,0,1-13.272-183.79l3.912-.568,2.505-8.4.049-.013a92.409,92.409,0,0,1,22.813-2.939c.643,0,1.307,0,1.975.014h.118L148.667,333.6l6.353,1.487a92.379,92.379,0,0,1-20.689,182.335ZM127.285,324.8l-2.509,8.417-4.028.584A92.2,92.2,0,0,0,134,517.237h.33a92.2,92.2,0,0,0,20.649-181.978l-6.55-1.529,3.429-11.836c-.626-.011-1.251-.015-1.852-.013a92.171,92.171,0,0,0-22.713,2.921Z" transform="translate(0.005 -238.667)"/><path class="d" d="M377.6,107.735l32.561,49.292-9.07,31.822,43.26-59.6,67.4-92.463-22.2-16.023,67.02-9.459,8.868,64.23-20.789-15L378,294.95l-54.494.191Z" transform="translate(-264.783 -9.249)"/><path class="b" d="M544.133,4.1l8.039,58.221-18.83-13.589L366.171,283.889l-51.14.182,52.333-181.3L397.3,148.083,385.643,188.97l49.286-67.906L503.4,27.129,483.379,12.678,544.133,4.1M547.239,0l-3.612.508L482.873,9.076l-8.931,1.271,7.314,5.279,17.063,12.317L432,118.924l-37.24,51.305,6.028-21.152.458-1.6-.92-1.392-29.928-45.315L366.057,94.2l-2.179,7.559-52.335,181.3-1.343,4.66,4.843-.018,51.14-.182h1.866L369.138,286,534.191,53.828l15.863,11.451,6.882,4.967-1.165-8.416L547.729,3.607Z" transform="translate(-253.889)"/></g></g></svg>