<svg xmlns="http://www.w3.org/2000/svg" width="50" height="1080.613" viewBox="0 0 50 1080.613"><defs><style>.a{fill:none;stroke:#51546c;stroke-linecap:round;stroke-width:3px;}.b{fill:#51546c;}.c{fill:#b43371;}.d{fill:#fff;}</style></defs><g transform="translate(-403 -3417)"><line class="a" y2="1073" transform="translate(427.5 3418.5)"/><path class="b" d="M20.382,22.581,31.113,11.842a2.019,2.019,0,0,1,2.864,0,2.045,2.045,0,0,1,0,2.873L21.819,26.882a2.024,2.024,0,0,1-2.8.059L6.779,14.723a2.028,2.028,0,0,1,2.864-2.873Z" transform="translate(406.623 4470.141)"/><circle class="c" cx="25" cy="25" r="25" transform="translate(403 3489)"/><g transform="translate(336.855 3500.199)"><g transform="translate(81.024)"><g transform="translate(0)"><path class="d" d="M100.72,8.827a1.451,1.451,0,0,0-.788-.271.623.623,0,0,0-.07,0H94.6L98.5,1.94a1.222,1.222,0,0,0,.117-1,1.322,1.322,0,0,0-.672-.782A1.488,1.488,0,0,0,97.324,0l-.053,0H87.965a1.4,1.4,0,0,0-1.332.891L81.121,13.956a1.219,1.219,0,0,0,.022,1,1.357,1.357,0,0,0,.775.694,1.484,1.484,0,0,0,.459.089l.052,0h5.314l-2.9,10.218a1.3,1.3,0,0,0,1,1.6,1.5,1.5,0,0,0,.358.043,1.44,1.44,0,0,0,1.137-.541l13.637-16.4A1.251,1.251,0,0,0,100.72,8.827ZM100.058,10,86.415,26.408l-.015.018a.26.26,0,0,1-.264.089.229.229,0,0,1-.176-.28l3.094-10.894a.511.511,0,0,0-.1-.467.594.594,0,0,0-.458-.21H82.468a.454.454,0,0,1-.13-.017.238.238,0,0,1-.136-.122.214.214,0,0,1,0-.175L87.716,1.272c0-.011.009-.022.012-.032a.247.247,0,0,1,.237-.161h9.307a.258.258,0,0,1,.118.029.233.233,0,0,1,.119.138.216.216,0,0,1-.021.175l-4.371,7.41a.507.507,0,0,0,.009.534.588.588,0,0,0,.5.265h6.185l.054,0a.256.256,0,0,1,.15.048A.219.219,0,0,1,100.058,10Z" transform="translate(-81.024)"/></g></g><g transform="translate(88.257 1.937)"><g transform="translate(0)"><path class="d" d="M207.433,35h-1.717a.553.553,0,1,0,0,1.107h1.717a.553.553,0,1,0,0-1.107Z" transform="translate(-205.162 -35)"/></g></g><g transform="translate(91.689 1.937)"><g transform="translate(0)"><path class="d" d="M265.5,35h-.015a.553.553,0,0,0,0,1.107h.015a.553.553,0,0,0,0-1.107Z" transform="translate(-264.927 -35)"/></g></g></g><g transform="translate(0 41)"><g transform="translate(0 194)"><circle class="c" cx="25" cy="25" r="25" transform="translate(403 3489)"/></g><g transform="translate(336.355 3694.199)"><g transform="translate(81.024)"><g transform="translate(0)"><path class="d" d="M100.72,8.827a1.451,1.451,0,0,0-.788-.271.623.623,0,0,0-.07,0H94.6L98.5,1.94a1.222,1.222,0,0,0,.117-1,1.322,1.322,0,0,0-.672-.782A1.488,1.488,0,0,0,97.324,0l-.053,0H87.965a1.4,1.4,0,0,0-1.332.891L81.121,13.956a1.219,1.219,0,0,0,.022,1,1.357,1.357,0,0,0,.775.694,1.484,1.484,0,0,0,.459.089l.052,0h5.314l-2.9,10.218a1.3,1.3,0,0,0,1,1.6,1.5,1.5,0,0,0,.358.043,1.44,1.44,0,0,0,1.137-.541l13.637-16.4A1.251,1.251,0,0,0,100.72,8.827ZM100.058,10,86.415,26.408l-.015.018a.26.26,0,0,1-.264.089.229.229,0,0,1-.176-.28l3.094-10.894a.511.511,0,0,0-.1-.467.594.594,0,0,0-.458-.21H82.468a.454.454,0,0,1-.13-.017.238.238,0,0,1-.136-.122.214.214,0,0,1,0-.175L87.716,1.272c0-.011.009-.022.012-.032a.247.247,0,0,1,.237-.161h9.307a.258.258,0,0,1,.118.029.233.233,0,0,1,.119.138.216.216,0,0,1-.021.175l-4.371,7.41a.507.507,0,0,0,.009.534.588.588,0,0,0,.5.265h6.185l.054,0a.256.256,0,0,1,.15.048A.219.219,0,0,1,100.058,10Z" transform="translate(-81.024)"/></g></g><g transform="translate(88.257 1.937)"><g transform="translate(0)"><path class="d" d="M207.433,35h-1.717a.553.553,0,1,0,0,1.107h1.717a.553.553,0,1,0,0-1.107Z" transform="translate(-205.162 -35)"/></g></g><g transform="translate(91.689 1.937)"><g transform="translate(0)"><path class="d" d="M265.5,35h-.015a.553.553,0,0,0,0,1.107h.015a.553.553,0,0,0,0-1.107Z" transform="translate(-264.927 -35)"/></g></g></g></g><g transform="translate(0 338)"><g transform="translate(0 194)"><circle class="c" cx="25" cy="25" r="25" transform="translate(403 3489)"/></g><g transform="translate(336.355 3694.199)"><g transform="translate(81.024)"><g transform="translate(0)"><path class="d" d="M100.72,8.827a1.451,1.451,0,0,0-.788-.271.623.623,0,0,0-.07,0H94.6L98.5,1.94a1.222,1.222,0,0,0,.117-1,1.322,1.322,0,0,0-.672-.782A1.488,1.488,0,0,0,97.324,0l-.053,0H87.965a1.4,1.4,0,0,0-1.332.891L81.121,13.956a1.219,1.219,0,0,0,.022,1,1.357,1.357,0,0,0,.775.694,1.484,1.484,0,0,0,.459.089l.052,0h5.314l-2.9,10.218a1.3,1.3,0,0,0,1,1.6,1.5,1.5,0,0,0,.358.043,1.44,1.44,0,0,0,1.137-.541l13.637-16.4A1.251,1.251,0,0,0,100.72,8.827ZM100.058,10,86.415,26.408l-.015.018a.26.26,0,0,1-.264.089.229.229,0,0,1-.176-.28l3.094-10.894a.511.511,0,0,0-.1-.467.594.594,0,0,0-.458-.21H82.468a.454.454,0,0,1-.13-.017.238.238,0,0,1-.136-.122.214.214,0,0,1,0-.175L87.716,1.272c0-.011.009-.022.012-.032a.247.247,0,0,1,.237-.161h9.307a.258.258,0,0,1,.118.029.233.233,0,0,1,.119.138.216.216,0,0,1-.021.175l-4.371,7.41a.507.507,0,0,0,.009.534.588.588,0,0,0,.5.265h6.185l.054,0a.256.256,0,0,1,.15.048A.219.219,0,0,1,100.058,10Z" transform="translate(-81.024)"/></g></g><g transform="translate(88.257 1.937)"><g transform="translate(0)"><path class="d" d="M207.433,35h-1.717a.553.553,0,1,0,0,1.107h1.717a.553.553,0,1,0,0-1.107Z" transform="translate(-205.162 -35)"/></g></g><g transform="translate(91.689 1.937)"><g transform="translate(0)"><path class="d" d="M265.5,35h-.015a.553.553,0,0,0,0,1.107h.015a.553.553,0,0,0,0-1.107Z" transform="translate(-264.927 -35)"/></g></g></g></g><g transform="translate(0 578)"><g transform="translate(0 194)"><circle class="c" cx="25" cy="25" r="25" transform="translate(403 3489)"/></g><g transform="translate(336.355 3694.199)"><g transform="translate(81.024)"><g transform="translate(0)"><path class="d" d="M100.72,8.827a1.451,1.451,0,0,0-.788-.271.623.623,0,0,0-.07,0H94.6L98.5,1.94a1.222,1.222,0,0,0,.117-1,1.322,1.322,0,0,0-.672-.782A1.488,1.488,0,0,0,97.324,0l-.053,0H87.965a1.4,1.4,0,0,0-1.332.891L81.121,13.956a1.219,1.219,0,0,0,.022,1,1.357,1.357,0,0,0,.775.694,1.484,1.484,0,0,0,.459.089l.052,0h5.314l-2.9,10.218a1.3,1.3,0,0,0,1,1.6,1.5,1.5,0,0,0,.358.043,1.44,1.44,0,0,0,1.137-.541l13.637-16.4A1.251,1.251,0,0,0,100.72,8.827ZM100.058,10,86.415,26.408l-.015.018a.26.26,0,0,1-.264.089.229.229,0,0,1-.176-.28l3.094-10.894a.511.511,0,0,0-.1-.467.594.594,0,0,0-.458-.21H82.468a.454.454,0,0,1-.13-.017.238.238,0,0,1-.136-.122.214.214,0,0,1,0-.175L87.716,1.272c0-.011.009-.022.012-.032a.247.247,0,0,1,.237-.161h9.307a.258.258,0,0,1,.118.029.233.233,0,0,1,.119.138.216.216,0,0,1-.021.175l-4.371,7.41a.507.507,0,0,0,.009.534.588.588,0,0,0,.5.265h6.185l.054,0a.256.256,0,0,1,.15.048A.219.219,0,0,1,100.058,10Z" transform="translate(-81.024)"/></g></g><g transform="translate(88.257 1.937)"><g transform="translate(0)"><path class="d" d="M207.433,35h-1.717a.553.553,0,1,0,0,1.107h1.717a.553.553,0,1,0,0-1.107Z" transform="translate(-205.162 -35)"/></g></g><g transform="translate(91.689 1.937)"><g transform="translate(0)"><path class="d" d="M265.5,35h-.015a.553.553,0,0,0,0,1.107h.015a.553.553,0,0,0,0-1.107Z" transform="translate(-264.927 -35)"/></g></g></g></g></g></svg>