<svg xmlns="http://www.w3.org/2000/svg" width="35" height="35" viewBox="0 0 35 35"><defs><style>.a{fill:#51546c;}</style></defs><path class="a" d="M23.22,16.625a2.042,2.042,0,1,1-2.04-1.943A1.988,1.988,0,0,1,23.22,16.625Zm-9.34-1.943a1.945,1.945,0,1,0,2.04,1.943A1.988,1.988,0,0,0,13.88,14.683ZM35,3.605V35c-5.039-3.9-3.427-2.606-9.28-7.367l1.06,3.238H4.1A3.877,3.877,0,0,1,0,27.265V3.605A3.877,3.877,0,0,1,4.1,0H30.9A3.877,3.877,0,0,1,35,3.605ZM29.3,20.2a21.254,21.254,0,0,0-2.88-10.2A10.87,10.87,0,0,0,20.8,8.155l-.28.28a13.954,13.954,0,0,1,4.98,2.222,19.181,19.181,0,0,0-14.94-.508c-.74.3-1.18.508-1.18.508a14.18,14.18,0,0,1,5.26-2.293l-.2-.21A10.87,10.87,0,0,0,8.82,9.993,21.254,21.254,0,0,0,5.94,20.2s1.68,2.538,6.1,2.66c0,0,.74-.788,1.34-1.453a6.209,6.209,0,0,1-3.5-2.065c.294.18.779.414.82.438a16.451,16.451,0,0,0,12.48.613,12.137,12.137,0,0,0,2.3-1.032,6.324,6.324,0,0,1-3.62,2.082c.6.665,1.32,1.418,1.32,1.418C27.6,22.733,29.3,20.2,29.3,20.2Z"/></svg>