<svg xmlns="http://www.w3.org/2000/svg" width="38" height="35" viewBox="0 0 38 35"><defs><style>.a{fill:#51546c;}</style></defs><path class="a" d="M40.571,8.96a14.185,14.185,0,0,1-4.478,1.391,8.756,8.756,0,0,0,3.428-4.888A14.548,14.548,0,0,1,34.57,7.607a7.393,7.393,0,0,0-5.691-2.79c-4.305,0-7.8,3.956-7.8,8.835a10,10,0,0,0,.2,2.014A21.4,21.4,0,0,1,5.216,6.434a9.707,9.707,0,0,0-1.056,4.442,9.192,9.192,0,0,0,3.468,7.355A7.083,7.083,0,0,1,4.1,17.126c0,.037,0,.074,0,.111,0,4.281,2.687,7.852,6.254,8.664a6.917,6.917,0,0,1-3.521.151,8,8,0,0,0,7.283,6.136A14.519,14.519,0,0,1,4.43,35.971a13.976,13.976,0,0,1-1.86-.124,20.229,20.229,0,0,0,11.951,3.97c14.34,0,22.182-13.464,22.182-25.14q0-.575-.023-1.143a17.171,17.171,0,0,0,3.89-4.574Z" transform="translate(-2.571 -4.817)"/></svg>