<svg xmlns="http://www.w3.org/2000/svg" width="35" height="35" viewBox="0 0 35 35"><defs><style>.a{fill:#51546c;}</style></defs><path class="a" d="M32.416,15.646a3.824,3.824,0,0,0-2.8,1.242,18.234,18.234,0,0,0-10.114-3.3L21.55,3.836l6.506,1.547a2.985,2.985,0,0,0,2.892,3.062,3.031,3.031,0,0,0,2.929-3.1,3.026,3.026,0,0,0-2.929-3.1,2.959,2.959,0,0,0-2.6,1.718L21.159,2.274a.688.688,0,0,0-.811.555L18.1,13.576A18.469,18.469,0,0,0,8.05,16.919a3.819,3.819,0,0,0-2.833-1.273c-4.1,0-5.444,5.827-1.689,7.819a9.238,9.238,0,0,0-.192,1.929c0,6.545,6.964,11.849,15.514,11.849,8.587,0,15.551-5.3,15.551-11.849a7.867,7.867,0,0,0-.229-1.96C37.852,21.434,36.5,15.646,32.416,15.646ZM9.481,23.879a3.006,3.006,0,0,1,2.929-3.1,3.088,3.088,0,0,1,0,6.163,2.991,2.991,0,0,1-2.929-3.062Zm15.809,7.3c-2.685,2.843-10.261,2.843-12.946,0a.757.757,0,0,1,0-1.07.681.681,0,0,1,.974,0c2.051,2.226,8.852,2.265,10.992,0a.681.681,0,0,1,.974,0A.751.751,0,0,1,25.29,31.182Zm-.059-4.233a3.085,3.085,0,1,1,2.929-3.062A2.985,2.985,0,0,1,25.231,26.948Z" transform="translate(-1.319 -2.243)"/></svg>