<svg id="logo-mobile" xmlns="http://www.w3.org/2000/svg" xmlns:xlink="http://www.w3.org/1999/xlink" width="68.86" height="61.729" viewBox="0 0 68.86 61.729">
  <defs>
    <linearGradient id="linear-gradient" x1="-0.002" y1="0.499" x2="1.001" y2="0.499" gradientUnits="objectBoundingBox">
      <stop offset="0" stop-color="#51546c"/>
      <stop offset="1" stop-color="#51546c"/>
    </linearGradient>
    <linearGradient id="linear-gradient-2" x1="-0.086" y1="0.927" x2="0.982" y2="0.016" gradientUnits="objectBoundingBox">
      <stop offset="0"/>
      <stop offset="0" stop-color="#070709"/>
      <stop offset="0" stop-color="#1a1b22"/>
      <stop offset="0" stop-color="#383a4b"/>
      <stop offset="0" stop-color="#51546c"/>
      <stop offset="0" stop-color="#59516c"/>
      <stop offset="0" stop-color="#80446e"/>
      <stop offset="0" stop-color="#9d3b70"/>
      <stop offset="0" stop-color="#ae3571"/>
      <stop offset="0" stop-color="#b43371"/>
      <stop offset="0.46" stop-color="#b53573"/>
      <stop offset="0.62" stop-color="#b93c7a"/>
      <stop offset="0.74" stop-color="#bf4785"/>
      <stop offset="0.83" stop-color="#c75896"/>
      <stop offset="0.92" stop-color="#d36eac"/>
      <stop offset="0.99" stop-color="#e189c7"/>
      <stop offset="1" stop-color="#e48fcd"/>
    </linearGradient>
  </defs>
  <g id="Layer_1" data-name="Layer 1">
    <path id="Path_5745" data-name="Path 5745" d="M397.848,448.394a20.151,20.151,0,1,1,7.867-1.59A20.151,20.151,0,0,1,397.848,448.394Zm0-34.941a14.732,14.732,0,1,0,14.732,14.732A14.75,14.75,0,0,0,397.848,413.454Z" transform="translate(-365.94 -395.365)" fill="url(#linear-gradient)"/>
    <path id="Path_5746" data-name="Path 5746" d="M388.072,395.123a19.842,19.842,0,1,1-7.744,1.565,19.842,19.842,0,0,1,7.744-1.565m0,34.94a15.044,15.044,0,1,0-15.045-15.044,15.061,15.061,0,0,0,15.045,15.044m0-35.564a20.467,20.467,0,1,0,7.988,1.614A20.467,20.467,0,0,0,388.072,394.5Zm0,34.94a14.42,14.42,0,1,1,14.42-14.42A14.437,14.437,0,0,1,388.072,429.439Z" transform="translate(-356.163 -382.199)" fill="#1d1d1b"/>
    <path id="Path_5747" data-name="Path 5747" d="M659.729,25.863l4.654,9.637L662.9,40.7l7.138-9.834L681.21,15.54l-3.694-2.666L688.667,11.3l1.475,10.687-3.459-2.5L659.051,58.36l-9.061.032Z" transform="translate(-629.724 -10.948)" fill="url(#linear-gradient-2)"/>
    <path id="Path_5748" data-name="Path 5748" d="M675.37.7,676.7,10.36,673.58,8.107,645.859,47.1l-8.481.03,9.389-31.357,4.255,8.807-1.933,6.78L657.262,20.1,668.617,4.523l-3.321-2.4L675.37.7M675.9,0l-.62.087L665.208,1.509l-1.534.218,1.256.906,2.812,2.03L656.757,19.733l-6.1,8.409.967-3.39.065-.228-.1-.214L647.329,15.5l-.7-1.446-.461,1.538-9.388,31.357-.241.805.842,0,8.481-.03h.32l.187-.261L673.724,8.98l2.613,1.886,1.182.853-.2-1.444L675.988.62Z" transform="translate(-616.693)" fill="#1d1d1b"/>
    <path id="Path_5749" data-name="Path 5749" d="M1.116,1765v2.045l2.232,3.625,2.233-3.625V1765H6.7v2.232L3.9,1771.7H2.786L0,1767.232V1765Z" transform="translate(0 -1709.968)" fill="#b43371"/>
    <path id="Path_5750" data-name="Path 5750" d="M247.4,1765v6.7H246.28V1765Z" transform="translate(-238.601 -1709.968)" fill="#b43371"/>
    <path id="Path_5751" data-name="Path 5751" d="M314.7,1765h5.581v1.027h-5.019l-.561.553v3.527l.561.561h3.348l.554-.561v-1.286h-2.795v-1.027h3.911v2.786l-1.116,1.116H314.7l-1.116-1.116v-4.465Z" transform="translate(-303.803 -1709.968)" fill="#b43371"/>
    <path id="Path_5752" data-name="Path 5752" d="M563.846,1765v6.7H562.73V1765Z" transform="translate(-545.184 -1709.968)" fill="#b43371"/>
    <path id="Path_5753" data-name="Path 5753" d="M633.987,1765v5.688h4.465v1.009H632.87V1765Z" transform="translate(-613.137 -1709.968)" fill="#b43371"/>
    <path id="Path_5754" data-name="Path 5754" d="M846.09,1771.7v-1.768h-4.465v1.768H840.51v-2.233L843.3,1765h1.107l2.795,4.465v2.233Zm-.561-2.786-1.67-2.884-1.679,2.884Z" transform="translate(-814.303 -1709.968)" fill="#b43371"/>
    <path id="Path_5755" data-name="Path 5755" d="M1087.906,1765l4.464,4.831V1765h1.116v6.7h-1.116l-4.464-4.831v4.831h-1.116V1765Z" transform="translate(-1052.904 -1709.968)" fill="#b43371"/>
    <path id="Path_5756" data-name="Path 5756" d="M1339.767,1765v1h-2.8v5.7h-1.116V1766h-2.786v-1Z" transform="translate(-1291.506 -1709.968)" fill="#b43371"/>
    <path id="Path_5757" data-name="Path 5757" d="M1583.187,1765v1.027h-5.581v1.857h4.464v1.027h-4.464v1.759h5.581v1.027h-6.7V1765Z" transform="translate(-1527.336 -1709.968)" fill="#b43371"/>
    <path id="Path_5758" data-name="Path 5758" d="M1826.6,1770.63l-1.116,1.116H1819.9v-1.027h5.018l.563-.561v-.643l-.563-.553h-3.9l-1.116-1.116v-1.679l1.116-1.116h5.581v1.027h-5.028l-.553.553v.741l.553.561h3.911l1.116,1.116Z" transform="translate(-1763.156 -1710.017)" fill="#b43371"/>
    <path id="Path_5759" data-name="Path 5759" d="M2055.9,1766.34v.377h-.726v1.9h-.452v-1.9H2054v-.377Zm2.46,2.276-.084-1.339c-.008-.175-.008-.394-.016-.636h-.024c-.06.2-.126.468-.194.678l-.409,1.264h-.469l-.411-1.3c-.041-.176-.107-.444-.159-.644h-.024c0,.209-.009.427-.017.636l-.083,1.339h-.436l.167-2.276h.677l.395,1.113c.05.176.092.343.15.577h.008c.059-.209.109-.4.159-.569l.394-1.121h.654l.176,2.276Z" transform="translate(-1989.957 -1711.266)" fill="#b43371"/>
  </g>
</svg>
