<svg xmlns="http://www.w3.org/2000/svg" xmlns:xlink="http://www.w3.org/1999/xlink" width="353.087" height="104.564" viewBox="0 0 353.087 104.564"><defs><style>.a{fill:#1d1d1b;}.b{fill:url(#a);}.c{fill:url(#b);}.d{fill:#b43371;}</style><linearGradient id="a" x1="0.853" y1="0.147" x2="0.147" y2="0.853" gradientUnits="objectBoundingBox"><stop offset="0" stop-color="#51546c"/><stop offset="1" stop-color="#51546c"/></linearGradient><linearGradient id="b" x1="-0.082" y1="0.93" x2="0.987" y2="0.02" gradientUnits="objectBoundingBox"><stop offset="0"/><stop offset="0" stop-color="#070709"/><stop offset="0" stop-color="#1a1b22"/><stop offset="0" stop-color="#383a4b"/><stop offset="0" stop-color="#51546c"/><stop offset="0" stop-color="#59516c"/><stop offset="0" stop-color="#80446e"/><stop offset="0" stop-color="#9d3b70"/><stop offset="0" stop-color="#ae3571"/><stop offset="0" stop-color="#b43371"/><stop offset="0.28" stop-color="#b53674"/><stop offset="0.531" stop-color="#ba3f7d"/><stop offset="0.724" stop-color="#c24f8d"/><stop offset="0.857" stop-color="#ce65a3"/><stop offset="0.938" stop-color="#dd81bf"/><stop offset="1" stop-color="#e48fcd"/></linearGradient></defs><g transform="translate(-62 -24.218)"><g transform="translate(62.005 24.218)"><g transform="translate(-0.005)"><path class="a" d="M245.569,508.218a31.024,31.024,0,0,1-4.46-61.727l.723-.105.8-2.675.016,0a30.98,30.98,0,0,1,8.144-1.116c.6,0,1.207.014,1.806.046h.037l-1.178,4.068,1.175.274a31.027,31.027,0,0,1-6.948,61.24Zm-2.892-64.459-.8,2.68-.761.111a30.968,30.968,0,0,0,4.452,61.61h.111a30.967,30.967,0,0,0,6.936-61.122l-1.235-.289,1.175-4.056c-.585-.031-1.178-.046-1.765-.044A30.949,30.949,0,0,0,242.677,443.759Z" transform="translate(-201.837 -416.371)"/><path class="b" d="M51.242,385.857A43.176,43.176,0,1,1,94.267,342.53,43.224,43.224,0,0,1,51.242,385.857ZM47.807,312.2l-1.02.148a30.553,30.553,0,1,0,11.346.482l-1.659-.387,1.15-3.969c-.409-.015-.818-.022-1.225-.02a30.513,30.513,0,0,0-7.785,1.034Z" transform="translate(-7.446 -281.763)"/><path d="M43.961,292.974A42.736,42.736,0,1,1,1.375,335.86a42.784,42.784,0,0,1,42.586-42.886m.348,73.636a31,31,0,0,0,6.942-61.18l-1.2-.281,1.177-4.061c-.6-.033-1.2-.048-1.8-.046a30.94,30.94,0,0,0-8.136,1.114l-.8,2.678-.742.108a31,31,0,0,0,4.564,61.668M43.958,292.1a43.615,43.615,0,1,0,43.769,43.462A43.666,43.666,0,0,0,43.958,292.1Zm-1.974,10.782a30.13,30.13,0,0,1,7.438-.958q.321,0,.643,0L49.2,304.9l-.258.889.9.211,1.2.281a30.17,30.17,0,1,1-11.185-.474l.742-.108.556-.081.16-.538.658-2.207Z" transform="translate(-0.466 -274.792)"/><path class="a" d="M43.638,378.889a43.644,43.644,0,0,1-.15-87.289h.155a43.645,43.645,0,0,1,.15,87.289Zm-.15-87.261v.03a43.586,43.586,0,0,0,.15,87.172h.155a43.586,43.586,0,0,0-.15-87.171h-.155Zm.149,86.381a42.766,42.766,0,0,1-.146-85.531h.152a42.766,42.766,0,0,1,.148,85.532Zm-.145-85.5v.03a42.707,42.707,0,0,0,.145,85.413h.153a42.707,42.707,0,0,0-.147-85.413H43.49Zm.237,73.665a31.024,31.024,0,0,1-4.46-61.727l.723-.105.8-2.675.016,0a30.98,30.98,0,0,1,8.144-1.116c.6,0,1.207.014,1.806.046h.037l-1.178,4.068,1.175.274a31.027,31.027,0,0,1-6.948,61.24h-.111Zm-2.892-64.459-.8,2.68-.761.111a30.968,30.968,0,0,0,4.452,61.61h.111a30.967,30.967,0,0,0,6.936-61.122L49.54,304.7l1.175-4.056c-.585-.031-1.179-.046-1.765-.044a30.948,30.948,0,0,0-8.114,1.11Zm2.892,63.581A30.145,30.145,0,0,1,39.4,305.316l1.277-.185.818-2.743.016,0a30.16,30.16,0,0,1,7.445-.959c.21,0,.427,0,.645,0h.039l-1.121,3.879,2.073.485a30.147,30.147,0,0,1-6.752,59.5Zm-2.192-62.859-.819,2.747-1.315.191a30.089,30.089,0,0,0,4.323,59.862h.108a30.088,30.088,0,0,0,6.739-59.387l-2.137-.5,1.119-3.862c-.2,0-.408,0-.6,0a30.086,30.086,0,0,0-7.412.953Z" transform="translate(0.005 -274.326)"/><path class="c" d="M341.163,42.771l10.626,16.086-2.96,10.385,14.118-19.451,22-30.175L377.7,14.387,399.569,11.3l2.894,20.961-6.784-4.9-54.385,76.5-17.784.062Z" transform="translate(-304.345 -10.631)"/><path class="a" d="M386.542,1.339l2.623,19L383.02,15.9l-54.555,76.74-16.689.059,17.078-59.167,9.769,14.788-3.8,13.343L350.9,39.508,373.251,8.853l-6.535-4.716,19.827-2.8M387.556,0l-1.179.166-19.827,2.8-2.915.415L366.023,5.1l5.569,4.019L349.947,38.81,337.794,55.553l1.967-6.9.149-.524-.3-.454-9.767-14.788-1.415-2.142-.711,2.467L310.638,92.375,310.2,93.9l1.581-.006,16.689-.059h.609l.355-.5L383.3,17.567l5.177,3.737,2.246,1.621-.38-2.746-2.624-19Z" transform="translate(-291.823)"/></g></g><g transform="translate(160.897 73.5)"><path class="d" d="M18.729,0V2.8H10.913V18.729H7.791V2.8H0V0Z"/><path class="d" d="M175.122,0V8.066h12.486V0h3.122V18.729h-3.122V10.938H175.122v7.791H172V0Z" transform="translate(-150.524)"/><path class="d" d="M364.729,0V2.872H349.122V8.066h12.486v2.872H349.122v4.92h15.608v2.872H346V0Z" transform="translate(-302.798)"/><path class="d" d="M617.912,0V5.719l6.243,10.139L630.4,5.719V0h3.122V6.243L625.7,18.729h-3.122L614.79,6.243V0Z" transform="translate(-538.026)"/><path class="d" d="M789.911,0V18.729H786.79V0Z" transform="translate(-688.55)"/><path class="d" d="M836.911,0h15.608V2.872H838.485L836.911,4.42v9.864l1.573,1.573h9.365l1.548-1.573v-3.6h-7.816V7.816h10.938v7.791L849.4,18.729H836.911l-3.121-3.122V3.122Z" transform="translate(-729.682)"/><path class="d" d="M1010.912,0V18.729h-3.122V0Z" transform="translate(-881.956)"/><path class="d" d="M1059.9,0V15.907h12.486v2.822H1056.78V0Z" transform="translate(-924.829)"/><path class="d" d="M1217.388,18.729V13.785H1204.9v4.945h-3.122V12.486L1209.6,0h3.1l7.816,12.486v6.243Zm-1.573-7.791-4.67-8.066-4.695,8.066Z" transform="translate(-1051.724)"/><path class="d" d="M1376.9,0l12.486,13.51V0h3.122V18.729h-3.122L1376.9,5.219v13.51h-3.122V0Z" transform="translate(-1202.248)"/><path class="d" d="M1564.51,0V2.8h-7.817V18.729h-3.122V2.8h-7.791V0Z" transform="translate(-1352.771)"/><path class="d" d="M1734.509,0V2.872H1718.9V8.066h12.486v2.872H1718.9v4.92h15.608v2.872H1715.78V0Z" transform="translate(-1501.545)"/><path class="d" d="M1904.5,15.608l-3.122,3.122H1885.77V15.857H1899.8l1.573-1.573v-1.8l-1.573-1.548h-10.911l-3.121-3.122V3.122L1888.892,0H1904.5V2.872h-14.06l-1.547,1.548V6.493l1.547,1.573h10.938l3.122,3.122Z" transform="translate(-1650.31)"/></g></g></svg>