<svg xmlns="http://www.w3.org/2000/svg" xmlns:xlink="http://www.w3.org/1999/xlink" width="238.755" height="257.552" viewBox="0 0 238.755 257.552">
  <defs>
    <linearGradient id="linear-gradient" x1="-0.002" y1="0.499" x2="1.001" y2="0.499" gradientUnits="objectBoundingBox">
      <stop offset="0" stop-color="#51546c"/>
      <stop offset="1" stop-color="#51546c"/>
    </linearGradient>
    <linearGradient id="linear-gradient-2" x1="-0.086" y1="0.927" x2="0.982" y2="0.016" gradientUnits="objectBoundingBox">
      <stop offset="0"/>
      <stop offset="0" stop-color="#070709"/>
      <stop offset="0" stop-color="#1a1b22"/>
      <stop offset="0" stop-color="#383a4b"/>
      <stop offset="0" stop-color="#51546c"/>
      <stop offset="0" stop-color="#59516c"/>
      <stop offset="0" stop-color="#80446e"/>
      <stop offset="0" stop-color="#9d3b70"/>
      <stop offset="0" stop-color="#ae3571"/>
      <stop offset="0" stop-color="#b43371"/>
      <stop offset="0.46" stop-color="#b53573"/>
      <stop offset="0.62" stop-color="#b93c7a"/>
      <stop offset="0.74" stop-color="#bf4785"/>
      <stop offset="0.83" stop-color="#c75896"/>
      <stop offset="0.92" stop-color="#d36eac"/>
      <stop offset="0.99" stop-color="#e189c7"/>
      <stop offset="1" stop-color="#e48fcd"/>
    </linearGradient>
  </defs>
  <g id="Menu-background-mobile" transform="translate(-2.396)" opacity="0.05">
    <g id="Layer_1" data-name="Layer 1" transform="translate(2.396)">
      <path id="Path_5741" data-name="Path 5741" d="M109.731,603.291a97.479,97.479,0,1,1,38.049-7.691,97.479,97.479,0,0,1-38.049,7.691Zm0-168.994a71.253,71.253,0,1,0,71.254,71.253A71.338,71.338,0,0,0,109.731,434.3Z" transform="translate(-10.845 -346.743)" fill="url(#linear-gradient)"/>
      <path id="Path_5742" data-name="Path 5742" d="M101.282,397.955a95.97,95.97,0,1,1-37.461,7.567,95.97,95.97,0,0,1,37.461-7.567m0,168.993a72.761,72.761,0,1,0-72.761-72.761,72.849,72.849,0,0,0,72.761,72.761m0-172.009a98.99,98.99,0,1,0,38.637,7.806A98.99,98.99,0,0,0,101.282,394.939Zm0,168.993a69.745,69.745,0,1,1,69.746-69.745A69.825,69.825,0,0,1,101.282,563.932Z" transform="translate(-2.396 -335.381)" fill="#1d1d1b"/>
      <path id="Path_5743" data-name="Path 5743" d="M331.855,81.734l22.51,46.609L347.2,153.491l34.523-47.565,54.028-74.117-17.869-12.9L471.814,11.3l7.136,51.688-16.73-12.075-133.645,188-43.825.154Z" transform="translate(-242.17 -9.596)" fill="url(#linear-gradient-2)"/>
      <path id="Path_5744" data-name="Path 5744" d="M459.078,3.41l6.447,46.7-15.1-10.9-134.077,188.6-41.018.143L320.738,76.29l20.572,42.6-9.35,32.794,39.533-54.464,54.919-75.338-16.06-11.591L459.078,3.41M461.653,0l-2.995.422L409.932,7.3l-7.42,1.056,6.076,4.384,13.6,9.819L369.057,95.439,339.543,136.11l4.675-16.4.315-1.1-.5-1.035-20.58-42.6-3.378-6.993-2.227,7.441L272.436,227.087l-1.166,3.9,4.072-.015,41.018-.143h1.55l.9-1.262L451.122,43.431l12.639,9.122,5.717,4.126-.964-6.985L462.067,3Z" transform="translate(-230.723)" fill="#1d1d1b"/>
    </g>
  </g>
</svg>
