<svg id="mib-mobile" xmlns="http://www.w3.org/2000/svg" width="55.658" height="23" viewBox="0 0 55.658 23">
  <path id="Path_5736" data-name="Path 5736" d="M232.418,141.247a9.235,9.235,0,0,0-.194-1.864,11.5,11.5,0,0,0-19.242-6.172,2.172,2.172,0,0,0-.69,1.952,2.15,2.15,0,0,0,1.519,1.851,2.21,2.21,0,0,0,2.338-.533,6.948,6.948,0,0,1,11.108,2.193,6.323,6.323,0,0,1,.479,4.113,5.283,5.283,0,0,1-4.895,4.094,5.18,5.18,0,0,1-4.161-1.581l-3.347-3.31-5.362-5.314a2.273,2.273,0,0,0-3.214,3.214c.266.278.547.542.821.813L212,145.081c1.172,1.163,2.329,2.336,3.518,3.477a10,10,0,0,0,14.934-1.049A9.885,9.885,0,0,0,232.418,141.247Zm-41.671-11.212a4.915,4.915,0,0,0-.542.084,2.275,2.275,0,0,0-1.053,3.82c1.212,1.217,2.437,2.422,3.656,3.632q2.158,2.143,4.316,4.288l5.916,5.882,4.608,4.582a2.271,2.271,0,0,0,3.2-3.219q-2.918-2.921-5.852-5.823l-5.782-5.745-4.1-4.087q-1.368-1.361-2.739-2.721A2.325,2.325,0,0,0,190.748,130.035Z" transform="translate(-176.762 -129.986)" fill="#fff"/>
  <path id="Path_5737" data-name="Path 5737" d="M17.24,132.269c.047-.146.086-.293.14-.436a2.269,2.269,0,0,1,3.661-.871c.5.466.975.958,1.46,1.441l5.608,5.581,5.806,5.772,5.684,5.651a2.273,2.273,0,0,1-1.744,3.887,2.189,2.189,0,0,1-1.432-.637q-.946-.931-1.886-1.868L30.4,146.667l-4.363-4.339L21.681,138l-3.7-3.677a2.359,2.359,0,0,1-.705-1.291c0-.014-.018-.027-.028-.04Z" transform="translate(-17.24 -130.299)"/>
  <path id="Path_5738" data-name="Path 5738" d="M361.663,129.474a2.506,2.506,0,0,1,1.069.479c.195.168.378.352.561.533.41.41.843.8,1.226,1.231a2.268,2.268,0,0,1-1.671,3.784,2.175,2.175,0,0,1-1.637-.674c-.5-.494-1-.983-1.488-1.483a2.273,2.273,0,0,1,1.176-3.84.433.433,0,0,0,.075-.034Z" transform="translate(-335.666 -129.47)"/>
  <path id="Path_5739" data-name="Path 5739" d="M472.322,141.234a9.876,9.876,0,0,1-1.966,6.261,10,10,0,0,1-14.934,1.049c-1.189-1.141-2.347-2.317-3.518-3.477l-4.421-4.377c-.274-.274-.554-.535-.821-.813a2.185,2.185,0,0,1-.539-2.335,2.138,2.138,0,0,1,1.832-1.515,2.172,2.172,0,0,1,1.921.639q2.681,2.652,5.362,5.311,1.671,1.656,3.344,3.31a5.2,5.2,0,0,0,4.161,1.579,5.283,5.283,0,0,0,4.895-4.094,6.323,6.323,0,0,0-.479-4.113,6.948,6.948,0,0,0-11.108-2.193,2.215,2.215,0,0,1-2.338.533,2.275,2.275,0,0,1-.829-3.8,11.506,11.506,0,0,1,19.242,6.172A9.36,9.36,0,0,1,472.322,141.234Z" transform="translate(-416.666 -129.972)"/>
  <path id="Path_5740" data-name="Path 5740" d="M190.747,130.19a2.325,2.325,0,0,1,1.626.691q1.372,1.36,2.739,2.721l4.1,4.087L205,143.434l5.854,5.825a2.271,2.271,0,0,1-3.2,3.219q-2.31-2.284-4.608-4.582l-5.916-5.882-4.316-4.288c-1.219-1.211-2.444-2.416-3.656-3.632a2.275,2.275,0,0,1,1.053-3.82A4.918,4.918,0,0,1,190.747,130.19Z" transform="translate(-176.762 -130.141)"/>
</svg>
