<svg xmlns="http://www.w3.org/2000/svg" width="224.483" height="92.763" viewBox="0 0 224.483 92.763">
  <g id="mib-desktop" transform="translate(0 0.06)">
    <path id="Path_5736" data-name="Path 5736" d="M365.714,175.292a37.25,37.25,0,0,0-.781-7.52,45.257,45.257,0,0,0-16.3-27.309c-11.053-8.946-23.723-12.066-37.681-9.655a44.866,44.866,0,0,0-23.626,12.068,8.761,8.761,0,0,0-2.783,7.873,8.67,8.67,0,0,0,6.127,7.467,8.914,8.914,0,0,0,9.431-2.152c6.7-6.176,14.62-8.755,23.585-7.327,9.875,1.572,16.97,7.142,21.218,16.173a25.5,25.5,0,0,1,1.931,16.59c-2.174,10.005-10.8,15.878-19.742,16.512a20.892,20.892,0,0,1-16.783-6.375q-6.758-6.678-13.5-13.348-10.813-10.719-21.627-21.433a9.168,9.168,0,0,0-12.965,12.965c1.073,1.12,2.207,2.185,3.31,3.277l17.831,17.654c4.725,4.689,9.393,9.42,14.19,14.024,10.631,10.206,23.232,13.729,37.573,10.444a38.574,38.574,0,0,0,22.661-14.675C363.181,193.424,365.714,185.319,365.714,175.292ZM197.645,130.069a19.831,19.831,0,0,0-2.187.339,9.174,9.174,0,0,0-4.245,15.406c4.888,4.907,9.828,9.768,14.744,14.65q8.706,8.642,17.406,17.3l23.861,23.723,18.587,18.482a9.158,9.158,0,0,0,12.918-12.984Q266.96,195.2,255.126,183.5q-11.663-11.586-23.32-23.171-8.275-8.24-16.551-16.485-5.517-5.489-11.048-10.973A9.379,9.379,0,0,0,197.645,130.069Z" transform="translate(-141.239 -129.931)" fill="#fff"/>
    <path id="Path_5737" data-name="Path 5737" d="M17.24,138.059c.188-.588.348-1.183.565-1.76a9.151,9.151,0,0,1,14.766-3.512c2.016,1.881,3.931,3.862,5.887,5.812q11.31,11.249,22.62,22.509l23.417,23.279,22.926,22.791a9.166,9.166,0,0,1-7.034,15.679,8.827,8.827,0,0,1-5.776-2.568q-3.815-3.754-7.605-7.533L70.3,196.128l-17.6-17.5L35.151,161.181,20.208,146.348a9.514,9.514,0,0,1-2.844-5.208c0-.058-.074-.108-.113-.163Z" transform="translate(-17.24 -130.175)"/>
    <path id="Path_5738" data-name="Path 5738" d="M369.608,129.487a10.106,10.106,0,0,1,4.312,1.931c.786.679,1.525,1.418,2.265,2.152,1.655,1.655,3.4,3.225,4.943,4.965a9.148,9.148,0,0,1-6.739,15.263,8.772,8.772,0,0,1-6.6-2.72c-2-1.994-4.027-3.964-6-5.983a9.168,9.168,0,0,1,4.742-15.486,1.749,1.749,0,0,0,.3-.138Z" transform="translate(-264.758 -129.53)"/>
    <path id="Path_5739" data-name="Path 5739" d="M552.194,175.281c0,10.027-2.524,18.132-7.928,25.251a38.574,38.574,0,0,1-22.661,14.675c-14.344,3.285-26.942-.232-37.573-10.444-4.8-4.6-9.464-9.346-14.19-14.024l-17.831-17.654c-1.1-1.1-2.234-2.157-3.31-3.277a8.811,8.811,0,0,1-2.174-9.417,8.624,8.624,0,0,1,7.387-6.11,8.76,8.76,0,0,1,7.746,2.579q10.813,10.695,21.627,21.42,6.739,6.678,13.486,13.348a20.972,20.972,0,0,0,16.783,6.367c8.937-.634,17.569-6.507,19.742-16.512a25.5,25.5,0,0,0-1.931-16.59c-4.248-9.031-11.343-14.6-21.218-16.173-8.971-1.429-16.887,1.15-23.585,7.327a8.932,8.932,0,0,1-9.431,2.152,9.174,9.174,0,0,1-3.343-15.34,44.866,44.866,0,0,1,23.626-12.068c13.966-2.4,26.628.717,37.681,9.655a45.256,45.256,0,0,1,16.3,27.309A37.748,37.748,0,0,1,552.194,175.281Z" transform="translate(-327.72 -129.92)"/>
    <path id="Path_5740" data-name="Path 5740" d="M197.644,130.19a9.379,9.379,0,0,1,6.56,2.786q5.533,5.484,11.048,10.973L231.8,160.434q11.657,11.586,23.32,23.171,11.809,11.746,23.613,23.494a9.158,9.158,0,0,1-12.918,12.984Q256.5,210.87,247.231,201.6L223.37,177.879q-8.7-8.648-17.406-17.3c-4.916-4.883-9.856-9.743-14.744-14.65a9.174,9.174,0,0,1,4.245-15.406,19.833,19.833,0,0,1,2.179-.337Z" transform="translate(-141.239 -130.051)"/>
  </g>
</svg>
