<svg id="mib-tablet" xmlns="http://www.w3.org/2000/svg" width="120.978" height="49.992" viewBox="0 0 120.978 49.992">
  <path id="Path_5736" data-name="Path 5736" d="M283.992,154.42a20.076,20.076,0,0,0-.421-4.052,25,25,0,0,0-41.825-13.417,4.721,4.721,0,0,0-1.5,4.243,4.672,4.672,0,0,0,3.3,4.024,4.8,4.8,0,0,0,5.083-1.16,15.1,15.1,0,0,1,24.145,4.768,13.743,13.743,0,0,1,1.041,8.94,11.483,11.483,0,0,1-10.64,8.9,11.259,11.259,0,0,1-9.044-3.436q-3.642-3.6-7.275-7.194L235.2,144.485a4.941,4.941,0,0,0-6.987,6.987c.578.6,1.189,1.177,1.784,1.766l9.609,9.514c2.547,2.527,5.062,5.077,7.647,7.558a21.738,21.738,0,0,0,32.461-2.28A21.485,21.485,0,0,0,283.992,154.42Zm-90.575-24.371a10.687,10.687,0,0,0-1.179.183,4.944,4.944,0,0,0-2.288,8.3c2.634,2.645,5.3,5.264,7.946,7.9q4.692,4.658,9.38,9.321l12.859,12.785,10.017,9.96a4.935,4.935,0,0,0,6.962-7q-6.342-6.349-12.719-12.657l-12.568-12.487q-4.46-4.44-8.92-8.884-2.973-2.958-5.954-5.914A5.055,5.055,0,0,0,193.416,130.048Z" transform="translate(-163.018 -129.941)" fill="#fff"/>
  <path id="Path_5737" data-name="Path 5737" d="M17.24,134.509c.1-.317.187-.638.3-.948a4.932,4.932,0,0,1,7.958-1.892c1.087,1.014,2.118,2.081,3.172,3.132q6.1,6.062,12.19,12.131l12.62,12.545L65.84,171.759a4.94,4.94,0,0,1-3.791,8.45,4.757,4.757,0,0,1-3.113-1.384q-2.056-2.023-4.1-4.06l-9-8.961-9.483-9.431-9.461-9.4-8.053-7.993a5.127,5.127,0,0,1-1.533-2.807c0-.031-.04-.058-.061-.088Z" transform="translate(-17.24 -130.228)"/>
  <path id="Path_5738" data-name="Path 5738" d="M364.737,129.479a5.446,5.446,0,0,1,2.324,1.041c.424.366.822.764,1.22,1.16.892.892,1.833,1.738,2.664,2.676a4.93,4.93,0,0,1-3.632,8.225,4.728,4.728,0,0,1-3.557-1.466c-1.079-1.075-2.17-2.136-3.235-3.224a4.941,4.941,0,0,1,2.555-8.346.94.94,0,0,0,.163-.074Z" transform="translate(-308.231 -129.47)"/>
  <path id="Path_5739" data-name="Path 5739" d="M503.225,154.407a21.467,21.467,0,0,1-4.272,13.608,21.738,21.738,0,0,1-32.461,2.28c-2.585-2.481-5.1-5.037-7.647-7.558l-9.609-9.514c-.595-.595-1.2-1.162-1.784-1.766a4.748,4.748,0,0,1-1.171-5.075,4.648,4.648,0,0,1,3.981-3.293,4.721,4.721,0,0,1,4.174,1.39q5.828,5.764,11.655,11.543,3.632,3.6,7.268,7.194a11.3,11.3,0,0,0,9.044,3.431,11.483,11.483,0,0,0,10.64-8.9,13.744,13.744,0,0,0-1.041-8.94,15.1,15.1,0,0,0-24.145-4.768,4.814,4.814,0,0,1-5.083,1.16,4.944,4.944,0,0,1-1.8-8.267A25.01,25.01,0,0,1,502.8,150.35,20.343,20.343,0,0,1,503.225,154.407Z" transform="translate(-382.252 -129.929)"/>
  <path id="Path_5740" data-name="Path 5740" d="M193.416,130.19a5.055,5.055,0,0,1,3.535,1.5q2.982,2.955,5.954,5.914l8.92,8.884,12.568,12.487q6.364,6.33,12.725,12.661a4.935,4.935,0,0,1-6.962,7q-5.022-4.965-10.017-9.96L207.28,155.89l-9.38-9.321c-2.649-2.631-5.312-5.251-7.946-7.9a4.944,4.944,0,0,1,2.288-8.3A10.69,10.69,0,0,1,193.416,130.19Z" transform="translate(-163.018 -130.083)"/>
</svg>
