<svg xmlns="http://www.w3.org/2000/svg" width="17.6" height="24" viewBox="0 0 17.6 24"><defs><style>.a{fill:#b43371;}</style></defs><g transform="translate(6.29 2.684)"><g transform="translate(0)"><path class="a" d="M207.136,35h-1.493a.481.481,0,0,0,0,.962h1.493a.481.481,0,1,0,0-.962Z" transform="translate(-205.162 -35)"/></g></g><g transform="translate(9.273 2.684)"><g transform="translate(0)"><path class="a" d="M265.421,35h-.013a.481.481,0,1,0,0,.962h.013a.481.481,0,0,0,0-.962Z" transform="translate(-264.927 -35)"/></g></g><path class="a" d="M98.15,7.675a1.262,1.262,0,0,0-.685-.236.541.541,0,0,0-.061,0H92.83l3.391-5.749a1.062,1.062,0,0,0,.1-.866,1.149,1.149,0,0,0-.585-.68A1.294,1.294,0,0,0,95.2,0l-.046,0H87.06A1.215,1.215,0,0,0,85.9.775l-4.793,11.36a1.06,1.06,0,0,0,.019.871,1.179,1.179,0,0,0,.674.6,1.29,1.29,0,0,0,.4.077l.045,0h4.621l-2.524,8.884a1.134,1.134,0,0,0,.87,1.39,1.308,1.308,0,0,0,.311.038,1.253,1.253,0,0,0,.988-.471L98.37,9.27A1.088,1.088,0,0,0,98.15,7.675ZM97.575,8.7,85.711,22.962l-.013.016a.226.226,0,0,1-.23.078.2.2,0,0,1-.153-.244l2.691-9.472a.444.444,0,0,0-.088-.406.517.517,0,0,0-.4-.183H82.28a.4.4,0,0,1-.113-.015.207.207,0,0,1-.119-.106.186.186,0,0,1,0-.152l4.8-11.371.011-.028a.215.215,0,0,1,.206-.14h8.092a.224.224,0,0,1,.1.025.2.2,0,0,1,.1.12.187.187,0,0,1-.018.152l-3.8,6.444a.441.441,0,0,0,.008.464.511.511,0,0,0,.433.23h5.378l.047,0a.222.222,0,0,1,.13.042A.191.191,0,0,1,97.575,8.7Z" transform="translate(-81.024)"/></svg>