<svg xmlns="http://www.w3.org/2000/svg" width="34" height="1185" viewBox="0 0 34 1185"><defs><style>.a{fill:#51546c;}.a,.b{font-size:36px;font-family:Poppins-ExtraBold, Poppins;font-weight:800;}.b{fill:#b43371;}</style></defs><g transform="translate(-1722 -3432)"><text class="a" transform="translate(1739 3470)"><tspan x="-10.872" y="0">T</tspan></text><text class="a" transform="translate(1739 3526)"><tspan x="-13.374" y="0">H</tspan></text><text class="a" transform="translate(1739 3582)"><tspan x="-9.864" y="0">E</tspan></text><text class="b" transform="translate(1739 3673)"><tspan x="-13.446" y="0">V</tspan></text><text class="a" transform="translate(1739 4268)"><tspan x="-11.898" y="0">R</tspan></text><text class="b" transform="translate(1739 3729)"><tspan x="-5.544" y="0">I</tspan></text><text class="a" transform="translate(1739 4324)"><tspan x="-14.166" y="0">O</tspan></text><text class="b" transform="translate(1739 3785)"><tspan x="-13.626" y="0">G</tspan></text><text class="a" transform="translate(1739 4380)"><tspan x="-13.59" y="0">A</tspan></text><text class="b" transform="translate(1739 3841)"><tspan x="-5.544" y="0">I</tspan></text><text class="a" transform="translate(1739 4436)"><tspan x="-13.23" y="0">D</tspan></text><text class="b" transform="translate(1739 3897)"><tspan x="-8.838" y="0">L</tspan></text><text class="a" transform="translate(1739 4492)"><tspan x="-16.83" y="0">M</tspan></text><text class="b" transform="translate(1739 3953)"><tspan x="-13.59" y="0">A</tspan></text><text class="a" transform="translate(1739 4548)"><tspan x="-13.59" y="0">A</tspan></text><text class="b" transform="translate(1739 4009)"><tspan x="-13.77" y="0">N</tspan></text><text class="a" transform="translate(1739 4604)"><tspan x="-11.448" y="0">P</tspan></text><text class="b" transform="translate(1739 4065)"><tspan x="-10.872" y="0">T</tspan></text><text class="b" transform="translate(1739 4121)"><tspan x="-9.864" y="0">E</tspan></text><text class="b" transform="translate(1739 4177)"><tspan x="-11.16" y="0">S</tspan></text></g></svg>